<?xml version="1.0" standalone="no"?>
<!DOCTYPE svg PUBLIC "-//W3C//DTD SVG 20010904//EN"
 "http://www.w3.org/TR/2001/REC-SVG-20010904/DTD/svg10.dtd">
<svg version="1.0" xmlns="http://www.w3.org/2000/svg"
 width="800.000000pt" height="800.000000pt" viewBox="0 0 800.000000 800.000000"
 preserveAspectRatio="xMidYMid meet">
<metadata>
Created by potrace 1.11, written by Peter Selinger 2001-2013
</metadata>
<g transform="translate(0.000000,800.000000) scale(0.100000,-0.100000)"
fill="#000000" stroke="none">
<path d="M5110 7085 c0 -503 -3 -915 -6 -915 -3 0 -27 18 -53 39 -92 77 -274
179 -406 228 -67 25 -198 63 -235 69 -19 3 -38 8 -41 10 -9 5 -91 19 -189 30
-25 3 -89 6 -142 7 -54 1 -98 6 -98 10 0 5 -4 6 -9 3 -4 -3 -57 -8 -117 -10
-100 -4 -169 -11 -234 -22 -77 -13 -157 -28 -200 -39 -11 -3 -28 -7 -37 -9
-53 -13 -190 -60 -202 -70 -8 -6 -16 -10 -17 -9 -9 6 -219 -93 -289 -135 -45
-26 -89 -56 -95 -62 -3 -3 -21 -16 -40 -27 -19 -12 -44 -30 -55 -40 -11 -10
-43 -36 -70 -58 -45 -36 -168 -156 -221 -217 -140 -158 -282 -398 -364 -613
-33 -87 -71 -205 -71 -220 0 -2 -5 -19 -10 -37 -6 -18 -12 -44 -15 -58 -2 -14
-9 -50 -16 -80 -6 -30 -12 -66 -14 -80 -13 -107 -18 -160 -18 -192 -1 -21 -4
-38 -7 -38 -4 0 -3 -16 1 -34 4 -19 6 -37 3 -40 -13 -12 2 -316 21 -426 3 -19
8 -46 10 -60 26 -153 79 -337 131 -455 12 -27 25 -60 29 -72 11 -34 114 -220
153 -277 104 -149 131 -182 253 -305 59 -59 118 -111 185 -161 22 -16 45 -34
51 -39 28 -23 204 -124 281 -161 70 -34 246 -104 288 -114 6 -2 17 -6 25 -9 8
-3 29 -8 45 -12 17 -3 48 -10 70 -16 22 -5 49 -11 61 -13 11 -2 45 -9 75 -14
122 -24 266 -36 429 -36 104 1 275 9 275 14 0 1 11 3 25 6 86 14 161 29 180
37 8 3 51 16 95 28 44 12 89 27 100 33 11 5 27 11 35 13 8 1 64 27 124 58 153
79 265 158 373 264 l25 24 -2 -34 c-1 -19 -2 -111 -1 -205 l1 -172 480 0 480
0 1 32 c0 41 0 5510 0 5559 l-1 37 -515 0 -515 0 0 -915z m-961 -1449 c204
-25 377 -91 531 -206 74 -55 230 -215 230 -236 0 -2 9 -14 20 -26 40 -43 138
-263 166 -373 4 -16 8 -34 10 -40 1 -5 10 -53 18 -105 15 -94 16 -381 1 -440
-3 -14 -8 -36 -10 -50 -8 -51 -15 -78 -46 -177 -18 -57 -36 -103 -41 -103 -4
0 -8 -9 -8 -19 0 -11 -7 -26 -15 -35 -9 -8 -15 -18 -15 -21 1 -13 -51 -105
-60 -105 -6 0 -10 -5 -10 -11 0 -34 -171 -207 -272 -275 -74 -50 -228 -125
-240 -118 -4 3 -8 1 -8 -4 0 -5 -19 -13 -42 -17 -45 -8 -56 -11 -60 -15 -5 -3
-42 -10 -70 -13 -16 -1 -28 -4 -28 -7 0 -3 -15 -5 -32 -6 -217 -6 -270 -5
-368 10 -26 4 -124 27 -140 33 -8 3 -20 7 -26 8 -6 2 -29 10 -50 19 -147 63
-256 133 -350 223 -66 63 -164 184 -164 202 0 6 -3 11 -7 11 -5 0 -13 10 -19
23 -6 12 -25 49 -42 82 -47 93 -96 248 -108 338 -3 23 -10 60 -14 81 -9 42 -7
333 3 376 3 14 8 43 12 65 16 108 47 199 116 340 164 334 483 555 854 590 39
4 71 8 72 9 4 4 164 -3 212 -8z"/>
<path d="M3887 1393 c-1 0 -90 -4 -197 -7 -107 -3 -229 -8 -270 -10 -110 -7
-220 -16 -260 -20 -19 -3 -66 -7 -105 -11 -38 -3 -83 -8 -100 -10 -16 -3 -53
-7 -81 -10 -28 -3 -59 -7 -70 -9 -20 -4 -89 -15 -139 -22 -16 -2 -41 -6 -55
-9 -14 -3 -38 -7 -55 -10 -43 -7 -74 -13 -93 -19 -9 -3 -35 -8 -57 -11 -45 -7
-70 -13 -70 -15 0 -1 -8 -3 -17 -5 -168 -32 -442 -123 -583 -193 -141 -70
-252 -159 -290 -232 -90 -174 79 -361 450 -498 143 -53 419 -131 525 -148 14
-2 45 -8 70 -14 66 -13 122 -23 145 -25 11 -1 32 -5 46 -8 14 -4 50 -9 80 -13
30 -3 65 -8 79 -10 29 -6 52 -9 140 -18 36 -4 83 -10 105 -12 46 -6 138 -14
210 -19 28 -1 106 -7 175 -11 69 -5 307 -9 530 -9 462 1 586 7 1000 50 93 10
451 64 470 72 8 3 27 7 43 9 39 5 75 12 95 18 9 3 31 8 47 11 38 8 60 13 60
15 0 2 3 2 60 15 36 7 45 10 65 18 8 4 33 11 55 16 37 8 216 70 260 90 73 32
161 77 163 84 2 4 9 7 14 7 15 0 112 74 150 113 78 82 96 194 43 277 -56 88
-147 158 -305 233 -94 44 -330 131 -330 121 0 -2 -9 0 -21 6 -11 6 -29 13 -40
16 -41 9 -56 13 -114 27 -33 9 -71 18 -85 21 -14 2 -36 7 -50 10 -14 3 -37 8
-52 11 -16 3 -39 7 -53 10 -43 9 -79 15 -115 21 -19 3 -46 7 -60 10 -14 2 -43
7 -65 10 -22 3 -53 7 -70 10 -16 3 -47 7 -68 9 -21 2 -53 6 -70 9 -18 3 -63 8
-102 11 -38 3 -86 8 -105 11 -19 2 -69 7 -110 9 -41 3 -100 7 -130 9 -102 9
-687 25 -693 19z"/>
</g>
</svg>
