<svg width="535" height="200" viewBox="0 0 535 200" xmlns="http://www.w3.org/2000/svg" xmlns:xlink="http://www.w3.org/1999/xlink"><title>Page 1</title><defs><path id="a" d="M0 199.764h534.617V0H0z"/></defs><g fill="none" fill-rule="evenodd"><path d="M64.73 119.328c17.32 0 28.292-13.087 28.292-30.217S81.668 58.894 64.73 58.894c-17.323 0-28.485 13.086-28.485 30.217 0 17.32 11.742 30.217 28.485 30.217zm29.255 11.162c-6.159 6.543-17.323 11.932-30.41 11.932-31.949 0-53.12-21.942-53.12-52.927 0-29.832 21.171-53.503 52.158-53.503 13.087 0 23.287 4.232 29.638 10.007V.001h25.79V140.69H93.985v-10.2zM155.795 78.14h46.576c-1.155-11.547-9.815-20.401-23.864-20.401-13.09 0-21.365 8.66-22.712 20.402zm-.577 19.438c1.347 13.666 10.97 21.942 25.598 21.942 13.087 0 20.592-6.928 25.981-15.396l19.055 11.547c-6.159 12.894-20.017 26.75-45.036 26.75-31.18 0-52.736-20.209-52.736-52.926 0-30.794 20.787-53.503 50.62-53.503 30.984 0 50.424 20.207 50.424 51.001 0 2.502 0 6.159-.385 10.585h-73.521z" fill="#29F998"/><mask id="b" fill="#fff"><use xlink:href="#a"/></mask><path fill="#29F998" mask="url(#b)" d="M239.357 140.69h25.79V.003h-25.79zM302.826 78.14h46.576c-1.155-11.547-9.816-20.401-23.865-20.401-13.086 0-21.364 8.66-22.711 20.402zm-.577 19.438c1.347 13.666 10.971 21.942 25.598 21.942 13.087 0 20.594-6.928 25.98-15.396l19.056 11.547c-6.159 12.894-20.017 26.75-45.036 26.75-31.18 0-52.736-20.209-52.736-52.926 0-30.794 20.787-53.503 50.619-53.503 30.985 0 50.424 20.207 50.424 51.001 0 2.502 0 6.159-.385 10.585h-73.52zM414.219 37.724h15.78V59.47h-15.78v47.924c0 7.699 2.5 10.968 9.815 10.968H430v21.942c-.578 0-5.198 1.347-14.05 1.347-19.439 0-27.522-9.815-27.522-26.943V59.47h-9.624V37.724h9.624V21.558h25.79v16.166zM461.289 78.14h46.577C506.71 66.594 498.05 57.74 484 57.74c-13.087 0-21.362 8.66-22.711 20.402zm-.577 19.438c1.347 13.666 10.971 21.942 25.598 21.942 13.086 0 20.594-6.928 25.98-15.396l19.055 11.547c-6.158 12.894-20.015 26.75-45.035 26.75-31.18 0-52.734-20.209-52.734-52.926 0-30.794 20.785-53.503 50.617-53.503 30.986 0 50.424 20.207 50.424 51.001 0 2.502 0 6.159-.385 10.585h-73.52z"/><path d="M128.467 182.466c0 9.552-28.759 17.298-64.234 17.298C28.759 199.764 0 192.018 0 182.466c0-9.555 28.758-17.298 64.232-17.298 35.475 0 64.234 7.743 64.234 17.298" fill="#000" mask="url(#b)"/></g></svg>