<svg width="129" height="200" viewBox="0 0 129 200" xmlns="http://www.w3.org/2000/svg"><title>Page 1</title><g fill="none" fill-rule="evenodd"><path d="M64.73 119.328c17.32 0 28.292-13.087 28.292-30.217S81.668 58.894 64.73 58.894c-17.323 0-28.485 13.086-28.485 30.217 0 17.32 11.742 30.217 28.485 30.217zm29.255 11.162c-6.159 6.543-17.323 11.932-30.41 11.932-31.949 0-53.12-21.942-53.12-52.927 0-29.832 21.171-53.503 52.158-53.503 13.087 0 23.287 4.232 29.638 10.007V.001h25.79V140.69H93.985v-10.2z" fill="#29F998"/><path d="M128.467 182.466c0 9.552-28.759 17.298-64.234 17.298C28.759 199.764 0 192.018 0 182.466c0-9.555 28.758-17.298 64.232-17.298 35.475 0 64.234 7.743 64.234 17.298" fill="#000"/></g></svg>